<?xml version="1.0" ?><svg viewBox="0 0 400 400" xmlns="http://www.w3.org/2000/svg"><g data-name="Layer 40" id="Layer_40"><path d="M326.25,177.34,205.63,80.69c-10.54-8.44-18.2-6.78-21.83-5s-9.71,6.69-9.71,20.19v49.22L93.75,80.69c-10.53-8.44-18.19-6.78-21.82-5s-9.71,6.69-9.71,20.19V304.16c0,13.5,6.08,18.44,9.71,20.18a14.56,14.56,0,0,0,6.39,1.42c4,0,9.2-1.47,15.43-6.46l80.34-64.36v49.22c0,13.5,6.08,18.44,9.71,20.18a14.56,14.56,0,0,0,6.39,1.42c4,0,9.21-1.47,15.44-6.46l120.62-96.64c7.44-6,11.53-14,11.53-22.66S333.69,183.3,326.25,177.34ZM87.5,311.5c-4.51,3.61-8.71,5.05-11.24,3.83s-4-5.39-4-11.17V95.84c0-5.78,1.51-10,4-11.17a4.55,4.55,0,0,1,2-.42c2.48,0,5.76,1.48,9.21,4.25l86.59,69.37,10,8,24,19.26c5,4,7.78,9.3,7.78,14.86s-2.76,10.83-7.78,14.86l-24,19.26-10,8ZM320,214.86,199.37,311.5c-4.51,3.61-8.71,5.05-11.24,3.83s-4-5.39-4-11.17V246.93l30.29-24.27c7.44-6,11.53-14,11.53-22.66s-4.09-16.7-11.53-22.66l-30.29-24.27V95.84c0-5.78,1.51-10,4-11.17a4.6,4.6,0,0,1,2-.42c2.48,0,5.75,1.48,9.2,4.25L320,185.14c5,4,7.78,9.3,7.78,14.86S325,210.83,320,214.86Z"/></g></svg>