<?xml version="1.0" ?><svg viewBox="0 0 400 400" xmlns="http://www.w3.org/2000/svg"><g data-name="Layer 39" id="Layer_39"><path d="M328.07,75.66c-3.63-1.75-11.29-3.41-21.82,5l-80.34,64.36V95.84c0-13.5-6.08-18.44-9.71-20.18s-11.29-3.41-21.83,5L73.75,177.34c-7.44,6-11.54,14-11.54,22.66s4.1,16.7,11.54,22.66L194.37,319.3c6.23,5,11.46,6.46,15.44,6.46a14.56,14.56,0,0,0,6.39-1.42c3.63-1.74,9.71-6.68,9.71-20.18V254.94l80.34,64.36c6.23,5,11.45,6.46,15.43,6.46a14.56,14.56,0,0,0,6.39-1.42c3.63-1.74,9.72-6.68,9.72-20.18V95.84C337.79,82.34,331.7,77.4,328.07,75.66ZM215.91,304.16c0,5.78-1.51,9.95-4,11.17s-6.73-.22-11.25-3.83L80,214.86c-5-4-7.78-9.3-7.79-14.86S75,189.17,80,185.14L200.62,88.5c3.46-2.77,6.73-4.25,9.21-4.25a4.6,4.6,0,0,1,2,.42c2.53,1.22,4,5.39,4,11.17v57.23l-30.29,24.27c-7.44,6-11.53,14-11.53,22.66s4.09,16.7,11.53,22.66l30.29,24.27Zm111.88,0c0,5.78-1.52,9.95-4.05,11.17s-6.73-.22-11.24-3.83l-86.59-69.37-10-8-24-19.26c-5-4-7.78-9.3-7.78-14.86s2.76-10.83,7.78-14.86l24-19.26,10-8L312.5,88.5c3.45-2.77,6.72-4.25,9.21-4.25a4.58,4.58,0,0,1,2,.42c2.53,1.22,4.05,5.39,4.05,11.17Z"/></g></svg>